<?xml version="1.0" encoding="utf-8"?>
<!-- Generator: Adobe Illustrator 25.0.0, SVG Export Plug-In . SVG Version: 6.00 Build 0)  -->
<svg version="1.1" id="Layer_1" xmlns="http://www.w3.org/2000/svg" xmlns:xlink="http://www.w3.org/1999/xlink" x="0px" y="0px"
	 viewBox="0 0 708.66 708.66" style="enable-background:new 0 0 708.66 708.66;" xml:space="preserve">
<g>
	<g>
		<g>
			<g>
				<g>
					<path d="M349.76,426.1c-65.44,5.88-120.05-48.97-114.23-114.74c4.46-50.41,44.85-91.01,95-95.51
						c65.44-5.88,120.04,48.97,114.23,114.73C440.29,380.99,399.91,421.59,349.76,426.1z M348.06,233.57
						c-54.38-4.85-99.74,40.77-94.89,95.41c3.72,41.9,37.28,75.64,78.96,79.39c54.41,4.9,99.84-40.76,94.97-95.45
						C423.35,271.02,389.76,237.29,348.06,233.57z"/>
				</g>
				<path d="M336.85,272.61c28-1.72,51.24,20.59,51.24,48.38c0,0.93-0.03,1.89-0.08,2.82v46.69c8.97-9.29,15.33-21.14,17.95-34.34
					v-10.46c0-19.31-4.8-32.53-9.26-40.67c-0.4-0.62-0.79-1.27-1.2-1.87c-6.63-10.41-15.41-18.24-26.34-23.5
					c-8.84-4.32-18.18-6.48-28.07-6.48c-2.34,0-4.54,0.11-6.63,0.35c-14.54,1.51-27.2,7.25-38.01,17.16
					c-10.71,9.83-17.57,21.92-20.59,36.29c-1.97,9.11-2.07,18.42-0.26,27.95c1.81,9.52,5.38,18.14,10.72,25.84
					c5.34,7.71,12.19,14.06,20.5,19.03c8.31,4.95,17.12,7.86,26.43,8.69c12.93,1.2,25.01-1.31,36.25-7.49v-0.68v-21.11v-40.63h-0.12
					c-1.23-15.69-14.28-28.07-30.21-28.07c-15.91,0-29.41,12.85-30.26,28.82c-0.93,17.54,13.01,32.12,30.26,32.12
					c5.02,0,9.74-1.24,13.9-3.43v19.51c-4.19,1.21-8.61,1.92-13.19,1.92c-27.68,0-49.9-23.43-48.11-51.62
					C293.29,293.7,312.84,274.08,336.85,272.61z M339.17,336.93c-9.84,0-17.64-9.09-15.52-19.32c1.28-6.18,6.28-11.13,12.46-12.3
					c10.1-1.91,18.94,5.87,18.94,15.68C355.05,329.76,347.93,336.93,339.17,336.93z"/>
			</g>
		</g>
	</g>
</g>
</svg>
